<svg xmlns="http://www.w3.org/2000/svg" viewBox="0 0 300 100" role="img" aria-label="拾拍調律所 SHIH-PAI PIANO TUNING ATELIER">
  <rect width="300" height="100" fill="#A93226"/>
  <rect x="4" y="4" width="292" height="92" fill="none" stroke="#C8963E" stroke-width="1.5"/>
  <path d="M69.2 50.0L71.0 51.7L72.5 53.4L73.9 55.1L75.1 56.8L76.1 58.5L76.9 60.1L77.5 61.7L77.9 63.2L78.0 64.8L77.9 66.2L77.6 67.6L77.1 69.0L76.4 70.3L75.5 71.5L74.3 72.7L73.0 73.8L71.5 74.8L69.8 75.7L68.0 76.5L66.0 77.3L63.9 78.0L61.6 78.5L59.3 79.0L56.9 79.4L54.4 79.7L51.8 79.9L49.3 80.0L46.7 80.0L44.2 79.9L41.6 79.7L39.1 79.4L36.7 79.0L34.4 78.5L32.1 78.0L30.0 77.3L28.0 76.5L26.2 75.7L24.5 74.8L23.0 73.8L21.7 72.7L20.5 71.5L19.6 70.3L18.9 69.0L18.4 67.6L18.1 66.2L18.0 64.8L18.1 63.2L18.5 61.7L19.1 60.1L19.9 58.5L20.9 56.8L22.1 55.1L23.5 53.4L25.0 51.7L26.8 50.0L28.7 48.3L30.7 46.6L32.9 44.9L35.1 43.2L37.5 41.5L40.0 39.9L42.5 38.3L45.0 36.8L47.6 35.2L50.1 33.8L52.7 32.4L55.2 31.0L57.7 29.7L60.1 28.5L62.4 27.3L64.6 26.2L66.7 25.2L68.6 24.3L70.4 23.5L72.0 22.7L73.5 22.0L74.7 21.5L75.8 21.0L76.7 20.6L77.3 20.3L77.8 20.1L78.0 20.0L78.0 20.0L77.8 20.1L77.3 20.3L76.7 20.6L75.8 21.0L74.7 21.5L73.5 22.0L72.0 22.7L70.4 23.5L68.6 24.3L66.7 25.2L64.6 26.2L62.4 27.3L60.1 28.5L57.7 29.7L55.2 31.0L52.7 32.4L50.1 33.8L47.6 35.2L45.0 36.8L42.5 38.3L40.0 39.9L37.5 41.5L35.1 43.2L32.9 44.9L30.7 46.6L28.7 48.3L26.8 50.0L25.0 51.7L23.5 53.4L22.1 55.1L20.9 56.8L19.9 58.5L19.1 60.1L18.5 61.7L18.1 63.2L18.0 64.8L18.1 66.2L18.4 67.6L18.9 69.0L19.6 70.3L20.5 71.5L21.7 72.7L23.0 73.8L24.5 74.8L26.2 75.7L28.0 76.5L30.0 77.3L32.1 78.0L34.4 78.5L36.7 79.0L39.1 79.4L41.6 79.7L44.2 79.9L46.7 80.0L49.3 80.0L51.8 79.9L54.4 79.7L56.9 79.4L59.3 79.0L61.6 78.5L63.9 78.0L66.0 77.3L68.0 76.5L69.8 75.7L71.5 74.8L73.0 73.8L74.3 72.7L75.5 71.5L76.4 70.3L77.1 69.0L77.6 67.6L77.9 66.2L78.0 64.8L77.9 63.2L77.5 61.7L76.9 60.1L76.1 58.5L75.1 56.8L73.9 55.1L72.5 53.4L71.0 51.7L69.2 50.0L67.3 48.3L65.3 46.6L63.1 44.9L60.9 43.2L58.5 41.5L56.0 39.9L53.5 38.3L51.0 36.8L48.4 35.2L45.9 33.8L43.3 32.4L40.8 31.0L38.3 29.7L35.9 28.5L33.6 27.3L31.4 26.2L29.3 25.2L27.4 24.3L25.6 23.5L24.0 22.7L22.5 22.0L21.3 21.5L20.2 21.0L19.3 20.6L18.7 20.3L18.2 20.1L18.0 20.0L18.0 20.0L18.2 20.1L18.7 20.3L19.3 20.6L20.2 21.0L21.3 21.5L22.5 22.0L24.0 22.7L25.6 23.5L27.4 24.3L29.3 25.2L31.4 26.2L33.6 27.3L35.9 28.5L38.3 29.7L40.8 31.0L43.3 32.4L45.9 33.8L48.4 35.2L51.0 36.8L53.5 38.3L56.0 39.9L58.5 41.5L60.9 43.2L63.1 44.9L65.3 46.6L67.3 48.3L69.2 50.0" fill="none" stroke="#E0B45E" stroke-width="2.4" stroke-linecap="round"/>
  <path d="M69.2 50.0L71.0 51.7L72.5 53.4L73.9 55.1L75.1 56.8L76.1 58.5L76.9 60.1L77.5 61.7L77.9 63.2L78.0 64.8L77.9 66.2L77.6 67.6L77.1 69.0L76.4 70.3L75.5 71.5L74.3 72.7L73.0 73.8L71.5 74.8L69.8 75.7L68.0 76.5L66.0 77.3L63.9 78.0L61.6 78.5L59.3 79.0L56.9 79.4L54.4 79.7L51.8 79.9L49.3 80.0L46.7 80.0L44.2 79.9L41.6 79.7L39.1 79.4L36.7 79.0L34.4 78.5L32.1 78.0L30.0 77.3L28.0 76.5L26.2 75.7L24.5 74.8L23.0 73.8L21.7 72.7L20.5 71.5L19.6 70.3L18.9 69.0L18.4 67.6L18.1 66.2L18.0 64.8L18.1 63.2L18.5 61.7L19.1 60.1L19.9 58.5L20.9 56.8L22.1 55.1L23.5 53.4L25.0 51.7L26.8 50.0L28.7 48.3L30.7 46.6L32.9 44.9L35.1 43.2L37.5 41.5L40.0 39.9L42.5 38.3L45.0 36.8L47.6 35.2L50.1 33.8L52.7 32.4L55.2 31.0L57.7 29.7L60.1 28.5L62.4 27.3L64.6 26.2L66.7 25.2L68.6 24.3L70.4 23.5L72.0 22.7L73.5 22.0L74.7 21.5L75.8 21.0L76.7 20.6L77.3 20.3L77.8 20.1L78.0 20.0L78.0 20.0L77.8 20.1L77.3 20.3L76.7 20.6L75.8 21.0L74.7 21.5L73.5 22.0L72.0 22.7L70.4 23.5L68.6 24.3L66.7 25.2L64.6 26.2L62.4 27.3L60.1 28.5L57.7 29.7L55.2 31.0L52.7 32.4L50.1 33.8L47.6 35.2L45.0 36.8L42.5 38.3L40.0 39.9L37.5 41.5L35.1 43.2L32.9 44.9L30.7 46.6L28.7 48.3L26.8 50.0L25.0 51.7L23.5 53.4L22.1 55.1L20.9 56.8L19.9 58.5L19.1 60.1L18.5 61.7L18.1 63.2L18.0 64.8L18.1 66.2L18.4 67.6L18.9 69.0L19.6 70.3L20.5 71.5L21.7 72.7L23.0 73.8L24.5 74.8L26.2 75.7L28.0 76.5L30.0 77.3L32.1 78.0L34.4 78.5L36.7 79.0L39.1 79.4L41.6 79.7L44.2 79.9L46.7 80.0L49.3 80.0L51.8 79.9L54.4 79.7L56.9 79.4L59.3 79.0L61.6 78.5L63.9 78.0L66.0 77.3L68.0 76.5L69.8 75.7L71.5 74.8L73.0 73.8L74.3 72.7L75.5 71.5L76.4 70.3L77.1 69.0L77.6 67.6L77.9 66.2L78.0 64.8L77.9 63.2L77.5 61.7L76.9 60.1L76.1 58.5L75.1 56.8L73.9 55.1L72.5 53.4L71.0 51.7L69.2 50.0L67.3 48.3L65.3 46.6L63.1 44.9L60.9 43.2L58.5 41.5L56.0 39.9L53.5 38.3L51.0 36.8L48.4 35.2L45.9 33.8L43.3 32.4L40.8 31.0L38.3 29.7L35.9 28.5L33.6 27.3L31.4 26.2L29.3 25.2L27.4 24.3L25.6 23.5L24.0 22.7L22.5 22.0L21.3 21.5L20.2 21.0L19.3 20.6L18.7 20.3L18.2 20.1L18.0 20.0L18.0 20.0L18.2 20.1L18.7 20.3L19.3 20.6L20.2 21.0L21.3 21.5L22.5 22.0L24.0 22.7L25.6 23.5L27.4 24.3L29.3 25.2L31.4 26.2L33.6 27.3L35.9 28.5L38.3 29.7L40.8 31.0L43.3 32.4L45.9 33.8L48.4 35.2L51.0 36.8L53.5 38.3L56.0 39.9L58.5 41.5L60.9 43.2L63.1 44.9L65.3 46.6L67.3 48.3L69.2 50.0" fill="none" stroke="#F4ECDC" stroke-width=".8" stroke-linecap="round" opacity=".55"/>
  <text x="112" y="47" font-family="serif" font-weight="900" font-size="30" fill="#F4ECDC">拾拍調律所</text>
  <text x="113" y="68" font-family="monospace" font-size="10.5" letter-spacing="2.2" fill="#E0B45E">SHIH-PAI PIANO TUNING</text>
  <text x="113" y="84" font-family="monospace" font-size="9" letter-spacing="1.2" fill="#D9A98C">3:2 — 每秒 1.2 拍，窄</text>
</svg>
