<svg xmlns="http://www.w3.org/2000/svg" viewBox="0 0 240 96" role="img" aria-label="金聲閣掌中劇團">
  <rect width="240" height="96" fill="#7C1512"/>
  <!-- key-fret border -->
  <path d="M6 6h228v84H6z" fill="none" stroke="#C89B3C" stroke-width="1.6"/>
  <!-- stage roof -->
  <path d="M18 34 L60 18 L102 34 L102 40 L18 40 Z" fill="#A81F16" stroke="#1A1310" stroke-width="2"/>
  <path d="M30 27 q30 -10 60 0" fill="none" stroke="#C89B3C" stroke-width="1.6"/>
  <!-- puppet head -->
  <g transform="translate(60,64)">
    <path d="M-16 -22 h32 l4 10 h-40 z" fill="#C89B3C" stroke="#1A1310" stroke-width="2"/>
    <path d="M-7 -25 h14 l1.6 4 h-17 z" fill="#A81F16" stroke="#1A1310" stroke-width="1.4"/>
    <circle cx="0" cy="-28" r="3" fill="#A81F16" stroke="#1A1310" stroke-width="1.2"/>
    <path d="M-17 -12 C-20 12 -12 24 0 24 C12 24 20 12 17 -12 Z" fill="#EEE4CB" stroke="#1A1310" stroke-width="2.4"/>
    <path d="M-12 -5 q6 -4 10 0 M2 -5 q5 -4 10 0" fill="none" stroke="#1A1310" stroke-width="2"/>
    <circle cx="-6" cy="1" r="2.2" fill="#1A1310"/><circle cx="6" cy="1" r="2.2" fill="#1A1310"/>
    <path d="M-8 9 q8 6 16 0" fill="none" stroke="#A81F16" stroke-width="2.4"/>
    <path d="M-14 -1 q-4 4 -2 8 M14 -1 q4 4 2 8" fill="none" stroke="#A81F16" stroke-width="1.8" opacity=".8"/>
  </g>
  <!-- wordmark -->
  <text x="120" y="46" font-family="'Ma Shan Zheng', serif" font-size="34" fill="#EEE4CB" letter-spacing="4">金聲閣</text>
  <text x="120" y="72" font-family="'ZCOOL QingKe HuangYou', serif" font-size="13" fill="#C89B3C" letter-spacing="3">掌中劇團 · GLOVE PUPPET</text>
</svg>
