<svg xmlns="http://www.w3.org/2000/svg" viewBox="0 0 210 48" role="img" aria-label="銀鹽相機所 Silver Halide">
  <g fill="#EAE8E2">
    <path d="M24 24 L24 8.5 A15.5 15.5 0 0 1 37.4 16.3 Z" opacity="0.92"/>
    <path d="M24 24 L37.4 16.3 A15.5 15.5 0 0 1 32.5 33.8 Z" opacity="0.72"/>
    <path d="M24 24 L32.5 33.8 A15.5 15.5 0 0 1 15.5 33.8 Z" opacity="0.9"/>
    <path d="M24 24 L15.5 33.8 A15.5 15.5 0 0 1 10.6 16.3 Z" opacity="0.68"/>
    <path d="M24 24 L10.6 16.3 A15.5 15.5 0 0 1 24 8.5 Z" opacity="0.82"/>
    <circle cx="24" cy="24" r="17" fill="none" stroke="#EAE8E2" stroke-width="1.4"/>
    <circle cx="24" cy="24" r="3.4" fill="#0D0D0D"/>
  </g>
  <g fill="#EAE8E2" font-family="'Archivo',sans-serif">
    <text x="52" y="21" font-size="16" font-weight="800" letter-spacing="1">SILVER HALIDE</text>
    <text x="52" y="37" font-size="10.5" font-weight="500" letter-spacing="4.5" fill="#8E8A82">銀 鹽 相 機 所</text>
  </g>
</svg>
