<svg xmlns="http://www.w3.org/2000/svg" viewBox="0 0 140 140" role="img" aria-label="孔雀閣 Hôtel Pavone 標誌">
  <title>Hôtel Pavone — 幾何孔雀羽扇 Art Deco 標誌</title>
  <defs>
    <clipPath id="pv-arch">
      <path d="M20 132 V60 L36 44 V36 L52 24 H60 L70 16 L80 24 H88 L104 36 V44 L120 60 V132 Z"/>
    </clipPath>
  </defs>
  <path d="M20 132 V60 L36 44 V36 L52 24 H60 L70 16 L80 24 H88 L104 36 V44 L120 60 V132"
        fill="none" stroke="#C6A15B" stroke-width="3" stroke-linejoin="miter"/>
  <g clip-path="url(#pv-arch)">
    <g stroke="#C6A15B" stroke-width="2.4" fill="none" stroke-linecap="round">
      <line x1="70" y1="128" x2="70" y2="52"/>
      <line x1="70" y1="128" x2="46" y2="60"/>
      <line x1="70" y1="128" x2="94" y2="60"/>
      <line x1="70" y1="128" x2="30" y2="78"/>
      <line x1="70" y1="128" x2="110" y2="78"/>
    </g>
    <g>
      <g transform="translate(70,48)"><ellipse rx="9" ry="12" fill="none" stroke="#C6A15B" stroke-width="2.4"/><ellipse rx="4.5" ry="6" fill="#0C3A34"/><circle r="1.8" fill="#C6A15B"/></g>
      <g transform="translate(44,56)"><ellipse rx="8" ry="11" fill="none" stroke="#C6A15B" stroke-width="2.4"/><ellipse rx="4" ry="5.5" fill="#0C3A34"/><circle r="1.6" fill="#C6A15B"/></g>
      <g transform="translate(96,56)"><ellipse rx="8" ry="11" fill="none" stroke="#C6A15B" stroke-width="2.4"/><ellipse rx="4" ry="5.5" fill="#0C3A34"/><circle r="1.6" fill="#C6A15B"/></g>
      <g transform="translate(27,74)"><ellipse rx="7" ry="10" fill="none" stroke="#C6A15B" stroke-width="2.4"/><ellipse rx="3.4" ry="5" fill="#0C3A34"/><circle r="1.4" fill="#C6A15B"/></g>
      <g transform="translate(113,74)"><ellipse rx="7" ry="10" fill="none" stroke="#C6A15B" stroke-width="2.4"/><ellipse rx="3.4" ry="5" fill="#0C3A34"/><circle r="1.4" fill="#C6A15B"/></g>
    </g>
    <path d="M52 128 L70 116 L88 128" fill="none" stroke="#C6A15B" stroke-width="2.4"/>
    <path d="M58 128 L70 120 L82 128" fill="none" stroke="#C6A15B" stroke-width="2.4"/>
  </g>
</svg>
