<svg xmlns="http://www.w3.org/2000/svg" viewBox="0 0 240 96" width="240" height="96" role="img" aria-label="候食堂 標誌"><rect width="240" height="96" fill="#C1362A"/><svg x="14" y="12" viewBox="0 0 72 72" width="72" height="72" class="wf"><defs><mask id="fl11"><rect width="72" height="72" fill="#000"/><g fill="#fff"><g transform="rotate(0.00 36.0 36.0)"><path d="M 36.0 36.0 54.5 25.3 L65.3 23.0 L54.7 29.9 L65.0 29.8 L55.6 33.9 L71.2 36.0 L58.3 38.3 L68.1 42.8 L56.9 42.8 L68.8 50.6 L52.2 45.4 Z"/><g fill="#000"><path d="M 36.0 36.0 l 0 -17 q 5 8 0 17 q -5 -8 0 -17 z" transform="translate(0,-4)"/><circle cx="45.6" cy="35.4" r="2.0"/><circle cx="48.8" cy="38.4" r="3.0"/></g></g><g transform="rotate(60.00 36.0 36.0)"><path d="M 36.0 36.0 54.5 25.3 L65.3 23.0 L54.7 29.9 L65.0 29.8 L55.6 33.9 L71.2 36.0 L58.3 38.3 L68.1 42.8 L56.9 42.8 L68.8 50.6 L52.2 45.4 Z"/><g fill="#000"><path d="M 36.0 36.0 l 0 -17 q 5 8 0 17 q -5 -8 0 -17 z" transform="translate(0,-4)"/><circle cx="45.6" cy="35.4" r="2.0"/><circle cx="48.8" cy="38.4" r="3.0"/></g></g><g transform="rotate(120.00 36.0 36.0)"><path d="M 36.0 36.0 54.5 25.3 L65.3 23.0 L54.7 29.9 L65.0 29.8 L55.6 33.9 L71.2 36.0 L58.3 38.3 L68.1 42.8 L56.9 42.8 L68.8 50.6 L52.2 45.4 Z"/><g fill="#000"><path d="M 36.0 36.0 l 0 -17 q 5 8 0 17 q -5 -8 0 -17 z" transform="translate(0,-4)"/><circle cx="45.6" cy="35.4" r="2.0"/><circle cx="48.8" cy="38.4" r="3.0"/></g></g><g transform="rotate(180.00 36.0 36.0)"><path d="M 36.0 36.0 54.5 25.3 L65.3 23.0 L54.7 29.9 L65.0 29.8 L55.6 33.9 L71.2 36.0 L58.3 38.3 L68.1 42.8 L56.9 42.8 L68.8 50.6 L52.2 45.4 Z"/><g fill="#000"><path d="M 36.0 36.0 l 0 -17 q 5 8 0 17 q -5 -8 0 -17 z" transform="translate(0,-4)"/><circle cx="45.6" cy="35.4" r="2.0"/><circle cx="48.8" cy="38.4" r="3.0"/></g></g><g transform="rotate(240.00 36.0 36.0)"><path d="M 36.0 36.0 54.5 25.3 L65.3 23.0 L54.7 29.9 L65.0 29.8 L55.6 33.9 L71.2 36.0 L58.3 38.3 L68.1 42.8 L56.9 42.8 L68.8 50.6 L52.2 45.4 Z"/><g fill="#000"><path d="M 36.0 36.0 l 0 -17 q 5 8 0 17 q -5 -8 0 -17 z" transform="translate(0,-4)"/><circle cx="45.6" cy="35.4" r="2.0"/><circle cx="48.8" cy="38.4" r="3.0"/></g></g><g transform="rotate(300.00 36.0 36.0)"><path d="M 36.0 36.0 54.5 25.3 L65.3 23.0 L54.7 29.9 L65.0 29.8 L55.6 33.9 L71.2 36.0 L58.3 38.3 L68.1 42.8 L56.9 42.8 L68.8 50.6 L52.2 45.4 Z"/><g fill="#000"><path d="M 36.0 36.0 l 0 -17 q 5 8 0 17 q -5 -8 0 -17 z" transform="translate(0,-4)"/><circle cx="45.6" cy="35.4" r="2.0"/><circle cx="48.8" cy="38.4" r="3.0"/></g></g></g></mask></defs><circle cx="36.0" cy="36.0" r="33.8" fill="#F2E9D6" mask="url(#fl11)"/><circle cx="36.0" cy="36.0" r="3.6" fill="#F2E9D6"/></svg><g fill="#F2E9D6" font-family="Noto Serif TC, serif" font-weight="900"><text x="104" y="52" font-size="40" letter-spacing="6">候食堂</text></g><text x="104" y="74" fill="#F2E9D6" font-family="Chivo Mono, monospace" font-size="11" letter-spacing="4">HOU · SOLAR-TERM CANTEEN</text><rect x="104" y="60" width="120" height="2" fill="#2E7D57"/></svg>