<svg xmlns="http://www.w3.org/2000/svg" viewBox="0 0 240 60" role="img" aria-label="栗子動物醫院">
  <g transform="translate(6,6)">
    <!-- chestnut body, wobbly hand-drawn -->
    <path d="M24 12c9-1 16 6 15 15 0 7-6 15-15 15S9 34 9 27c-1-9 6-14 15-15z" fill="#B5552F" stroke="#4A3526" stroke-width="2.4" stroke-linejoin="round"/>
    <!-- shell cap -->
    <path d="M8 20c4-8 28-8 32 0-3 2-9 3-16 3s-13-1-16-3z" fill="#7A5A3A" stroke="#4A3526" stroke-width="2.4" stroke-linejoin="round"/>
    <path d="M24 8v10" stroke="#4A3526" stroke-width="2.4" stroke-linecap="round"/>
    <!-- little cheeks + eyes: friendly -->
    <circle cx="19" cy="27" r="2.2" fill="#4A3526"/>
    <circle cx="30" cy="27" r="2.2" fill="#4A3526"/>
    <path d="M21 33q3.5 3 7 0" fill="none" stroke="#4A3526" stroke-width="2.2" stroke-linecap="round"/>
    <circle cx="15" cy="31" r="2.4" fill="#E58AA0" opacity=".7"/>
    <circle cx="34" cy="31" r="2.4" fill="#E58AA0" opacity=".7"/>
  </g>
  <text x="60" y="30" font-family="'Baloo 2','Noto Sans TC',sans-serif" font-size="21" font-weight="700" fill="#4A3526">栗子</text>
  <text x="60" y="48" font-family="'Baloo 2','Noto Sans TC',sans-serif" font-size="14" font-weight="600" fill="#B5552F" letter-spacing="1">動物醫院 · Chestnut Vet</text>
</svg>
