<svg xmlns="http://www.w3.org/2000/svg" viewBox="0 0 640 200" width="640" height="200" role="img" aria-label="永石鑄字所 YONGSHI TYPE FOUNDRY"><rect width="640" height="200" fill="#C9C5D4"/><rect x="16" y="16" width="608" height="168" fill="none" stroke="#14131A" stroke-width="4"/><g transform="translate(44,36) scale(0.128)"><path d="M484.7 86.9L525.5 188.9" fill="none" stroke="#14131A" stroke-width="92.7" stroke-linecap="butt" stroke-linejoin="miter"/><path d="M275.6 285.8L545.9 285.8" fill="none" stroke="#14131A" stroke-width="88.5" stroke-linecap="butt" stroke-linejoin="miter"/><path d="M500.0 285.8L500.0 785.6L398.0 862.1" fill="none" stroke="#14131A" stroke-width="96.0" stroke-linecap="butt" stroke-linejoin="miter"/><path d="M336.8 296.0L270.5 469.4L143.0 790.7" fill="none" stroke="#14131A" stroke-width="96.0" stroke-linecap="butt" stroke-linejoin="miter"/><path d="M505.1 438.8L668.3 357.2L857.0 806.0" fill="none" stroke="#14131A" stroke-width="96.0" stroke-linecap="butt" stroke-linejoin="miter"/></g><g transform="translate(190,36) scale(0.128)"><path d="M132.8 250.1L867.2 250.1" fill="none" stroke="#14131A" stroke-width="88.5" stroke-linecap="butt" stroke-linejoin="miter"/><path d="M398.0 250.1L168.5 867.2" fill="none" stroke="#14131A" stroke-width="92.7" stroke-linecap="butt" stroke-linejoin="miter"/><path d="M347.0 520.4L347.0 836.6" fill="none" stroke="#14131A" stroke-width="96.0" stroke-linecap="butt" stroke-linejoin="miter"/><path d="M347.0 520.4L765.2 520.4L765.2 836.6" fill="none" stroke="#14131A" stroke-width="96.0" stroke-linecap="butt" stroke-linejoin="miter"/><path d="M347.0 836.6L765.2 836.6" fill="none" stroke="#14131A" stroke-width="88.5" stroke-linecap="butt" stroke-linejoin="miter"/></g><line x1="330" y1="34" x2="330" y2="166" stroke="#14131A" stroke-width="3"/><text x="356" y="88" font-family="Fraunces, Georgia, serif" font-weight="700" font-size="38" fill="#14131A">YONGSHI</text><text x="356" y="122" font-family="Space Mono, monospace" font-size="17" letter-spacing="3.4" fill="#14131A">TYPE FOUNDRY</text><text x="356" y="152" font-family="Space Mono, monospace" font-size="12" letter-spacing="2.6" fill="#D8323C">TAINAN · CAST BY SKELETON</text></svg>