<svg xmlns="http://www.w3.org/2000/svg" viewBox="0 0 220 72" width="220" height="72" role="img" aria-label="節線提琴製作所 NODAL">
  <defs>
    <clipPath id="plateClip"><path d="M30 6 C41 6 47 13 47 21 C47 27 43 31 39 34 C43 37 48 42 48 51 C48 61 40 67 30 67 C20 67 12 61 12 51 C12 42 17 37 21 34 C17 31 13 27 13 21 C13 13 19 6 30 6 Z"/></clipPath>
  </defs>
  <g>
    <path d="M30 6 C41 6 47 13 47 21 C47 27 43 31 39 34 C43 37 48 42 48 51 C48 61 40 67 30 67 C20 67 12 61 12 51 C12 42 17 37 21 34 C17 31 13 27 13 21 C13 13 19 6 30 6 Z" fill="#C9A26B"/>
    <g clip-path="url(#plateClip)" opacity="0.42">
      <g stroke="#171B1C" stroke-width="0.7">
        <path d="M18 4 V70"/><path d="M22 4 V70"/><path d="M26 4 V70"/><path d="M30 4 V70"/><path d="M34 4 V70"/><path d="M38 4 V70"/><path d="M42 4 V70"/>
      </g>
    </g>
    <ellipse cx="30" cy="36" rx="12.5" ry="21" fill="none" stroke="#E8E4D6" stroke-width="2.4" stroke-dasharray="1.6 2.6" stroke-linecap="round"/>
    <circle cx="30" cy="15" r="1.5" fill="#E8E4D6"/><circle cx="30" cy="57" r="1.5" fill="#E8E4D6"/>
    <path d="M23 27 C20 31 20 41 23 45" fill="none" stroke="#171B1C" stroke-width="2" stroke-linecap="round"/>
    <path d="M37 27 C40 31 40 41 37 45" fill="none" stroke="#171B1C" stroke-width="2" stroke-linecap="round"/>
  </g>
  <text x="60" y="33" font-family="'IBM Plex Mono',monospace" font-size="19" letter-spacing="4.5" fill="#E8E4D6">NODAL</text>
  <text x="61" y="52" font-family="'Noto Serif TC',serif" font-size="12.5" letter-spacing="3" fill="#5E8C86">節線提琴製作所</text>
  <path d="M60 39 H150" stroke="#2C3537" stroke-width="1"/>
</svg>
