<svg xmlns="http://www.w3.org/2000/svg" viewBox="0 0 80 80" role="img" aria-label="孢徑蕈學社 SPOREKEY"><circle cx="40" cy="40" r="29" fill="#8a4326"/><g stroke="#ece2ca" stroke-width="1.1" opacity="0.9"><line x1="40" y1="40" x2="69.0" y2="40.0"/><line x1="40" y1="40" x2="67.3" y2="49.9"/><line x1="40" y1="40" x2="62.2" y2="58.6"/><line x1="40" y1="40" x2="54.5" y2="65.1"/><line x1="40" y1="40" x2="45.0" y2="68.6"/><line x1="40" y1="40" x2="35.0" y2="68.6"/><line x1="40" y1="40" x2="25.5" y2="65.1"/><line x1="40" y1="40" x2="17.8" y2="58.6"/><line x1="40" y1="40" x2="12.7" y2="49.9"/><line x1="40" y1="40" x2="11.0" y2="40.0"/><line x1="40" y1="40" x2="12.7" y2="30.1"/><line x1="40" y1="40" x2="17.8" y2="21.4"/><line x1="40" y1="40" x2="25.5" y2="14.9"/><line x1="40" y1="40" x2="35.0" y2="11.4"/><line x1="40" y1="40" x2="45.0" y2="11.4"/><line x1="40" y1="40" x2="54.5" y2="14.9"/><line x1="40" y1="40" x2="62.2" y2="21.4"/><line x1="40" y1="40" x2="67.3" y2="30.1"/></g><circle cx="40" cy="40" r="5" fill="#251d13"/></svg>