<svg xmlns="http://www.w3.org/2000/svg" viewBox="0 0 220 64" width="220" height="64" role="img" aria-label="失物課 Lost Property Office">
<rect width="220" height="64" fill="#EFC223"/>
<rect x="8" y="8" width="48" height="48" fill="#111111"/>
<path d="M8 8h13L8 21z" fill="#EFC223"/><path d="M56 56h-13l13-13z" fill="#EFC223"/>
<g transform="translate(8,8) scale(1.5)" fill="none" stroke="#F4F2EC" stroke-width="2.05" stroke-linecap="butt">
<path d="M17.4 5.2C15.4 9.4 12.4 14 8.4 26.6"/><path d="M9.2 11.2H22.2"/><path d="M5.6 17.6H27"/><path d="M13.6 5.8 10.6 10.2"/><path d="M16.6 17.6C19 21 22 24 26.4 26.8"/>
</g>
<text x="70" y="30" font-family="Archivo,Helvetica,Arial,sans-serif" font-size="20" font-weight="800" fill="#111111" letter-spacing="0.5">失物課</text>
<text x="70" y="44" font-family="Archivo,Helvetica,Arial,sans-serif" font-size="8" font-weight="600" fill="#111111" letter-spacing="2.1">LOST PROPERTY 244</text>
<g>
<rect x="70" y="50" width="15" height="8" fill="hsl(19.2 68% 51%)" stroke="#111" stroke-width="1"/>
<rect x="87" y="50" width="15" height="8" fill="hsl(74.6 68% 51%)" stroke="#111" stroke-width="1"/>
<rect x="104" y="50" width="15" height="8" fill="hsl(157.7 68% 51%)" stroke="#111" stroke-width="1"/><rect x="104" y="55" width="15" height="3" fill="#12A24C"/>
<rect x="121" y="50" width="15" height="8" fill="hsl(185.4 68% 51%)" stroke="#111" stroke-width="1"/><rect x="121" y="55" width="15" height="3" fill="#12A24C"/>
<rect x="138" y="50" width="15" height="8" fill="hsl(185.4 68% 51%)" stroke="#111" stroke-width="1"/><rect x="138" y="55" width="15" height="3" fill="#12A24C"/>
</g>
</svg>