<svg xmlns="http://www.w3.org/2000/svg" viewBox="0 0 200 200" role="img" aria-label="錦鱗園 logo">
  <rect width="200" height="200" fill="#3F5B66"/>
  <circle cx="100" cy="100" r="86" fill="none" stroke="#EDE4CE" stroke-width="4"/>
  <!-- koi, top view, inside roundel -->
  <path d="M100 36 C124 36 138 60 138 92 C138 128 124 152 112 168 L128 190 L100 178 L72 190 L88 168 C76 152 62 128 62 92 C62 60 76 36 100 36 Z"
        fill="#EDE4CE" stroke="#1B1815" stroke-width="4"/>
  <!-- pectoral fins -->
  <path d="M66 96 C46 102 40 124 50 138 C60 128 66 112 68 104 Z" fill="#EDE4CE" stroke="#1B1815" stroke-width="3"/>
  <path d="M134 96 C154 102 160 124 150 138 C140 128 134 112 132 104 Z" fill="#EDE4CE" stroke="#1B1815" stroke-width="3"/>
  <!-- hi (red) + sumi (black) markings -->
  <path d="M86 60 q16 -6 24 8 q6 16 -10 20 q-18 2 -20 -12 q-2 -12 6 -16 Z" fill="#C8331F"/>
  <path d="M104 118 q18 -4 22 12 q2 16 -14 18 q-18 0 -18 -16 q0 -12 10 -14 Z" fill="#1B1815"/>
  <path d="M82 132 q12 -2 12 10 q-2 12 -14 10 q-10 -2 -8 -12 q2 -8 10 -8 Z" fill="#C8331F"/>
  <circle cx="90" cy="58" r="5" fill="#1B1815"/><circle cx="110" cy="58" r="5" fill="#1B1815"/>
</svg>
