<svg xmlns="http://www.w3.org/2000/svg" viewBox="0 0 300 84" role="img" aria-label="宵灣花火 星ノ尾煙火店">
  <defs>
    <radialGradient id="sky" cx="42" cy="42" r="40" gradientUnits="userSpaceOnUse">
      <stop offset="0" stop-color="#1B2A50"/><stop offset="1" stop-color="#0E1730"/>
    </radialGradient>
  </defs>
  <circle cx="42" cy="42" r="40" fill="url(#sky)"/>
  <g stroke="#E7B84E" stroke-width="2.2" fill="none" stroke-linecap="round">
    <g id="spokes">
      <line x1="42" y1="42" x2="42" y2="8"/>
      <line x1="42" y1="42" x2="66" y2="18"/>
      <line x1="42" y1="42" x2="76" y2="42"/>
      <line x1="42" y1="42" x2="66" y2="66"/>
      <line x1="42" y1="42" x2="42" y2="76"/>
      <line x1="42" y1="42" x2="18" y2="66"/>
      <line x1="42" y1="42" x2="8" y2="42"/>
      <line x1="42" y1="42" x2="18" y2="18"/>
    </g>
  </g>
  <g fill="#E24A3B">
    <circle cx="42" cy="8" r="3.4"/><circle cx="66" cy="18" r="3.4"/><circle cx="76" cy="42" r="3.4"/><circle cx="66" cy="66" r="3.4"/>
    <circle cx="42" cy="76" r="3.4"/><circle cx="18" cy="66" r="3.4"/><circle cx="8" cy="42" r="3.4"/><circle cx="18" cy="18" r="3.4"/>
  </g>
  <g fill="#FFD24D">
    <line stroke="#FFCF7A" stroke-width="1.6" x1="42" y1="42" x2="55" y2="29"/><line stroke="#FFCF7A" stroke-width="1.6" x1="42" y1="42" x2="55" y2="55"/>
    <line stroke="#FFCF7A" stroke-width="1.6" x1="42" y1="42" x2="29" y2="55"/><line stroke="#FFCF7A" stroke-width="1.6" x1="42" y1="42" x2="29" y2="29"/>
    <circle cx="55" cy="29" r="2.3"/><circle cx="55" cy="55" r="2.3"/><circle cx="29" cy="55" r="2.3"/><circle cx="29" cy="29" r="2.3"/>
  </g>
  <circle cx="42" cy="42" r="4.6" fill="#EDE3CE"/>
  <text x="98" y="40" font-family="'Shippori Mincho B1', serif" font-weight="800" font-size="30" fill="#EDE3CE" letter-spacing="4">宵灣花火</text>
  <text x="99" y="64" font-family="'Zen Kaku Gothic New', sans-serif" font-weight="500" font-size="12.5" fill="#E7B84E" letter-spacing="2">星ノ尾煙火店 ・ 宵灣花火大会</text>
</svg>
