<svg xmlns="http://www.w3.org/2000/svg" viewBox="0 0 360 140" role="img" aria-label="拾月堂產後護理之家">
  <!-- 拾月堂 Logo：層疊剪紙——圓齒紙盤、彎月、雲、搖籃 -->
  <!-- 紙盤（圓齒刀花邊，兩層紙厚） -->
  <g>
    <path d="M70 12a10 10 0 0 1 9 6 10 10 0 0 1 10-3 10 10 0 0 1 6 8 10 10 0 0 1 10 1 10 10 0 0 1 3 9 10 10 0 0 1 9 4 10 10 0 0 1-1 10 10 10 0 0 1 7 7 10 10 0 0 1-4 9 10 10 0 0 1 4 9 10 10 0 0 1-7 7 10 10 0 0 1 1 10 10 10 0 0 1-9 4 10 10 0 0 1-3 9 10 10 0 0 1-10 1 10 10 0 0 1-6 8 10 10 0 0 1-10-3 10 10 0 0 1-9 6 10 10 0 0 1-9-6 10 10 0 0 1-10 3 10 10 0 0 1-6-8 10 10 0 0 1-10-1 10 10 0 0 1-3-9 10 10 0 0 1-9-4 10 10 0 0 1 1-10 10 10 0 0 1-7-7 10 10 0 0 1 4-9 10 10 0 0 1-4-9 10 10 0 0 1 7-7 10 10 0 0 1-1-10 10 10 0 0 1 9-4 10 10 0 0 1 3-9 10 10 0 0 1 10-1 10 10 0 0 1 6-8 10 10 0 0 1 10 3 10 10 0 0 1 9-6z"
          fill="#D9A9A2" transform="translate(2 7)" opacity=".5"/>
    <path d="M70 12a10 10 0 0 1 9 6 10 10 0 0 1 10-3 10 10 0 0 1 6 8 10 10 0 0 1 10 1 10 10 0 0 1 3 9 10 10 0 0 1 9 4 10 10 0 0 1-1 10 10 10 0 0 1 7 7 10 10 0 0 1-4 9 10 10 0 0 1 4 9 10 10 0 0 1-7 7 10 10 0 0 1 1 10 10 10 0 0 1-9 4 10 10 0 0 1-3 9 10 10 0 0 1-10 1 10 10 0 0 1-6 8 10 10 0 0 1-10-3 10 10 0 0 1-9 6 10 10 0 0 1-9-6 10 10 0 0 1-10 3 10 10 0 0 1-6-8 10 10 0 0 1-10-1 10 10 0 0 1-3-9 10 10 0 0 1-9-4 10 10 0 0 1 1-10 10 10 0 0 1-7-7 10 10 0 0 1 4-9 10 10 0 0 1-4-9 10 10 0 0 1 7-7 10 10 0 0 1-1-10 10 10 0 0 1 9-4 10 10 0 0 1 3-9 10 10 0 0 1 10-1 10 10 0 0 1 6-8 10 10 0 0 1 10 3 10 10 0 0 1 9-6z"
          fill="#F6DFD3"/>
  </g>
  <!-- 內圈紙層 -->
  <circle cx="70" cy="72" r="44" fill="#C98E82" opacity=".35"/>
  <circle cx="70" cy="69" r="44" fill="#FFF6EE"/>
  <!-- 彎月（兩層紙厚） -->
  <path d="M84 34a34 34 0 1 0 16 46 27 27 0 0 1-16-46z" fill="#C98E82" transform="translate(0 4)" opacity=".5"/>
  <path d="M84 34a34 34 0 1 0 16 46 27 27 0 0 1-16-46z" fill="#D9A9A2"/>
  <!-- 小雲 -->
  <path d="M52 56c-6 0-10-3.4-10-7.6s4-7.6 8.8-7.6c1.8-4.4 6.4-7 11.4-7 6 0 11 3.5 12.4 8.6 4.8.2 8.4 3 8.4 6.6 0 4-4 7-9 7z" fill="#9FBFAE" transform="translate(2 3)" opacity=".5"/>
  <path d="M52 56c-6 0-10-3.4-10-7.6s4-7.6 8.8-7.6c1.8-4.4 6.4-7 11.4-7 6 0 11 3.5 12.4 8.6 4.8.2 8.4 3 8.4 6.6 0 4-4 7-9 7z" fill="#CFE0D5"/>
  <!-- 搖籃與寶寶 -->
  <g transform="translate(38 74)">
    <path d="M4 8h56l-6.6 19a12.5 7.5 0 0 1-11.4 6.6H22A12.5 7.5 0 0 1 10.6 27z" fill="#A5614F" transform="translate(0 3.5)" opacity=".5"/>
    <path d="M4 8h56l-6.6 19a12.5 7.5 0 0 1-11.4 6.6H22A12.5 7.5 0 0 1 10.6 27z" fill="#C0796C"/>
    <ellipse cx="32" cy="9" rx="27" ry="4.6" fill="#EBC7C2"/>
    <circle cx="21" cy="6" r="4.4" fill="#FFF6EE"/>
    <path d="M26 5c4.6-3 12-2.8 15.6.8 1.8 1.8 1.2 3.6-1.4 3.6H27z" fill="#FFF6EE"/>
  </g>
  <!-- 字標 -->
  <g fill="#584740" font-family="'Noto Serif TC','Songti TC',serif" font-weight="600">
    <text x="150" y="76" font-size="42" letter-spacing="6">拾月堂</text>
    <text x="152" y="104" font-size="14" letter-spacing="7.5" fill="#847064" font-family="'Noto Sans TC','PingFang TC',sans-serif" font-weight="400">產後護理之家</text>
  </g>
  <!-- 字標下的小刀花 -->
  <path d="M152 114h136v4a5 3 0 0 1-10 0 5 3 0 0 1-10 0 5 3 0 0 1-10 0 5 3 0 0 1-10 0 5 3 0 0 1-10 0 5 3 0 0 1-10 0 5 3 0 0 1-10 0 5 3 0 0 1-10 0 5 3 0 0 1-10 0 5 3 0 0 1-10 0 5 3 0 0 1-10 0 5 3 0 0 1-10 0 5 3 0 0 1-10 0 5 3 0 0 1-6 0z" fill="#AFCBBB" opacity=".9"/>
</svg>
