<svg xmlns="http://www.w3.org/2000/svg" viewBox="0 0 560 200" role="img" aria-label="糖雲 Sugar Cloud 標誌">
  <!-- 背景 blob -->
  <path d="M96 30c46-22 96-8 110 30 12 34-10 84-58 96-46 12-96-10-108-52C28 62 52 50 96 30z" fill="#FCE3ED"/>

  <!-- 雲朵吉祥物 -->
  <g>
    <path d="M52 128a34 34 0 0 1 9-64 46 46 0 0 1 87-14 38 38 0 0 1 40 58 32 32 0 0 1-32 40H74a33 33 0 0 1-22-20z" fill="#FFFFFF" stroke="#5A4350" stroke-width="6"/>
    <!-- 腮紅 -->
    <ellipse cx="78" cy="106" rx="9" ry="6" fill="#FFD6E4"/>
    <ellipse cx="152" cy="106" rx="9" ry="6" fill="#FFD6E4"/>
    <!-- 眼睛與微笑 -->
    <circle cx="96" cy="94" r="5" fill="#5A4350"/>
    <circle cx="134" cy="94" r="5" fill="#5A4350"/>
    <path d="M108 106q7 8 15 0" stroke="#5A4350" stroke-width="5" fill="none" stroke-linecap="round"/>
    <!-- 頭頂草莓 -->
    <path d="M106 40c3-9 8-13 10-13s7 4 10 13c0 6-5 9-10 9s-10-3-10-9z" fill="#E85D75" stroke="#5A4350" stroke-width="4" stroke-linejoin="round"/>
    <path d="M116 27q1-8 9-10" stroke="#5FBF9A" stroke-width="4.5" fill="none" stroke-linecap="round"/>
    <circle cx="112" cy="38" r="1.6" fill="#fff"/><circle cx="120" cy="41" r="1.6" fill="#fff"/>
  </g>

  <!-- 周邊糖粒與星星 -->
  <circle cx="36" cy="52" r="6" fill="#FFE29A" stroke="#5A4350" stroke-width="3"/>
  <circle cx="196" cy="140" r="5" fill="#9EDCC3" stroke="#5A4350" stroke-width="3"/>
  <path d="M190 44l3 7 7 3-7 3-3 7-3-7-7-3 7-3z" fill="#A9DCF2" stroke="#5A4350" stroke-width="3" stroke-linejoin="round"/>
  <rect x="26" y="140" width="16" height="6" rx="3" transform="rotate(-24 34 143)" fill="#F7A8C4" stroke="#5A4350" stroke-width="2.5"/>

  <!-- 中文字標 -->
  <text x="238" y="102" font-family="'Noto Sans TC','PingFang TC',sans-serif" font-size="72" font-weight="900" fill="#5A4350">糖雲</text>
  <!-- 英文字標 -->
  <text x="240" y="146" font-family="'Baloo 2','Comic Sans MS',cursive" font-size="34" font-weight="800" fill="#E2789F" letter-spacing="2">Sugar Cloud</text>
  <!-- 波浪底線 -->
  <path d="M240 166q12-12 24 0t24 0 24 0 24 0 24 0 24 0 24 0 24 0" stroke="#9EDCC3" stroke-width="6" fill="none" stroke-linecap="round"/>
  <!-- 小標語 -->
  <text x="242" y="192" font-family="'Noto Sans TC','PingFang TC',sans-serif" font-size="16" font-weight="700" fill="#5A4350" opacity=".75">台中・棉花糖甜點專門店</text>
</svg>
