<svg xmlns="http://www.w3.org/2000/svg" viewBox="0 0 120 48" role="img" aria-label="手帖果醬所 Handnote Jam">
  <defs>
    <clipPath id="jar"><path d="M8 18h20v20a4 4 0 0 1-4 4H12a4 4 0 0 1-4-4z"/></clipPath>
  </defs>
  <!-- jar body -->
  <rect x="8" y="26" width="20" height="16" clip-path="url(#jar)" fill="#C85A6A"/>
  <rect x="8" y="30" width="20" height="12" clip-path="url(#jar)" fill="#B14C5E" opacity=".55"/>
  <path d="M8 18h20v20a4 4 0 0 1-4 4H12a4 4 0 0 1-4-4z" fill="none" stroke="#33302A" stroke-width="2"/>
  <!-- lid -->
  <rect x="11" y="12" width="14" height="7" rx="1.5" fill="#E7A24C" stroke="#33302A" stroke-width="2"/>
  <path d="M13 12c0-3 10-3 10 0" fill="none" stroke="#33302A" stroke-width="1.4"/>
  <!-- brush dab -->
  <circle cx="18" cy="33" r="3.2" fill="#F3E7D2" opacity=".7"/>
  <!-- wordmark -->
  <text x="36" y="24" font-family="'Zen Kurenaido',sans-serif" font-size="15" fill="#33302A">手帖</text>
  <text x="36" y="40" font-family="'Caveat',cursive" font-size="14" fill="#7FA36A">Handnote</text>
</svg>
