<svg xmlns="http://www.w3.org/2000/svg" viewBox="0 0 120 120" width="120" height="120"><circle cx="60" cy="60" r="58" fill="#EFE6CD" stroke="#1D160B" stroke-width="4.29"/><circle cx="60" cy="60" r="41.8" fill="none" stroke="#7C6A3A" stroke-width="1.71"/><line x1="60.0" y1="2.0" x2="60.0" y2="17.0" stroke="#1D160B" stroke-width="2.14"/><line x1="75.0" y1="4.0" x2="72.8" y2="12.3" stroke="#1D160B" stroke-width="2.14"/><line x1="89.0" y1="9.8" x2="81.5" y2="22.8" stroke="#1D160B" stroke-width="2.14"/><line x1="101.0" y1="19.0" x2="95.0" y2="25.0" stroke="#1D160B" stroke-width="2.14"/><line x1="110.2" y1="31.0" x2="97.2" y2="38.5" stroke="#1D160B" stroke-width="2.14"/><line x1="116.0" y1="45.0" x2="107.7" y2="47.2" stroke="#1D160B" stroke-width="2.14"/><line x1="118.0" y1="60.0" x2="103.0" y2="60.0" stroke="#1D160B" stroke-width="2.14"/><line x1="116.0" y1="75.0" x2="107.7" y2="72.8" stroke="#1D160B" stroke-width="2.14"/><line x1="110.2" y1="89.0" x2="97.2" y2="81.5" stroke="#1D160B" stroke-width="2.14"/><line x1="101.0" y1="101.0" x2="95.0" y2="95.0" stroke="#1D160B" stroke-width="2.14"/><line x1="89.0" y1="110.2" x2="81.5" y2="97.2" stroke="#1D160B" stroke-width="2.14"/><line x1="75.0" y1="116.0" x2="72.8" y2="107.7" stroke="#1D160B" stroke-width="2.14"/><line x1="60.0" y1="118.0" x2="60.0" y2="103.0" stroke="#1D160B" stroke-width="2.14"/><line x1="45.0" y1="116.0" x2="47.2" y2="107.7" stroke="#1D160B" stroke-width="2.14"/><line x1="31.0" y1="110.2" x2="38.5" y2="97.2" stroke="#1D160B" stroke-width="2.14"/><line x1="19.0" y1="101.0" x2="25.0" y2="95.0" stroke="#1D160B" stroke-width="2.14"/><line x1="9.8" y1="89.0" x2="22.8" y2="81.5" stroke="#1D160B" stroke-width="2.14"/><line x1="4.0" y1="75.0" x2="12.3" y2="72.8" stroke="#1D160B" stroke-width="2.14"/><line x1="2.0" y1="60.0" x2="17.0" y2="60.0" stroke="#1D160B" stroke-width="2.14"/><line x1="4.0" y1="45.0" x2="12.3" y2="47.2" stroke="#1D160B" stroke-width="2.14"/><line x1="9.8" y1="31.0" x2="22.8" y2="38.5" stroke="#1D160B" stroke-width="2.14"/><line x1="19.0" y1="19.0" x2="25.0" y2="25.0" stroke="#1D160B" stroke-width="2.14"/><line x1="31.0" y1="9.8" x2="38.5" y2="22.8" stroke="#1D160B" stroke-width="2.14"/><line x1="45.0" y1="4.0" x2="47.2" y2="12.3" stroke="#1D160B" stroke-width="2.14"/><line x1="45.6" y1="48.5" x2="55.7" y2="45.6" stroke="#B9902F" stroke-width="2.73"/><line x1="55.7" y1="45.6" x2="65.0" y2="47.8" stroke="#B9902F" stroke-width="2.73"/><line x1="65.0" y1="47.8" x2="71.5" y2="55.7" stroke="#B9902F" stroke-width="2.73"/><line x1="71.5" y1="55.7" x2="69.3" y2="65.8" stroke="#B9902F" stroke-width="2.73"/><line x1="69.3" y1="65.8" x2="60.0" y2="70.1" stroke="#B9902F" stroke-width="2.73"/><line x1="60.0" y1="70.1" x2="50.7" y2="67.2" stroke="#B9902F" stroke-width="2.73"/><circle cx="45.6" cy="48.5" r="5.40" fill="#EFE6CD" stroke="#1D160B" stroke-width="1.71"/><circle cx="55.7" cy="45.6" r="3.84" fill="#EFE6CD" stroke="#1D160B" stroke-width="1.71"/><circle cx="65.0" cy="47.8" r="3.84" fill="#EFE6CD" stroke="#1D160B" stroke-width="1.71"/><circle cx="71.5" cy="55.7" r="3.84" fill="#EFE6CD" stroke="#1D160B" stroke-width="1.71"/><circle cx="69.3" cy="65.8" r="3.84" fill="#EFE6CD" stroke="#1D160B" stroke-width="1.71"/><circle cx="60.0" cy="70.1" r="3.84" fill="#EFE6CD" stroke="#1D160B" stroke-width="1.71"/><circle cx="50.7" cy="67.2" r="3.84" fill="#EFE6CD" stroke="#1D160B" stroke-width="1.71"/><circle cx="60" cy="60" r="3.00" fill="#C6381E"/><path d="M60 2 l 6 14.399999999999999 l -12 0 z" fill="#C6381E" stroke="#1D160B" stroke-width="1.50"/></svg>