<svg xmlns="http://www.w3.org/2000/svg" viewBox="0 0 200 60" role="img" aria-label="算珠堂 SUANPAN">
 <rect width="200" height="60" fill="#23372E"/>
 <!-- abacus mark -->
 <g transform="translate(8,6)">
  <rect x="0" y="0" width="48" height="48" rx="5" fill="#1B2A23" stroke="#7A4E28" stroke-width="2"/>
  <g stroke="#7A4E28" stroke-width="1.3">
   <line x1="11" y1="5" x2="11" y2="43"/><line x1="24" y1="5" x2="24" y2="43"/><line x1="37" y1="5" x2="37" y2="43"/>
  </g>
  <line x1="4" y1="20" x2="44" y2="20" stroke="#EDE5D0" stroke-width="1.8"/>
  <polygon points="11,10 15,13.5 11,17 7,13.5" fill="#CE9A4E" stroke="#5f3c1e" stroke-width=".5"/>
  <polygon points="24,10 28,13.5 24,17 20,13.5" fill="#CE9A4E" stroke="#5f3c1e" stroke-width=".5"/>
  <polygon points="37,12.5 41,16 37,19.5 33,16" fill="#C6402F" stroke="#5f3c1e" stroke-width=".5"/>
  <polygon points="11,24 15,27.5 11,31 7,27.5" fill="#CE9A4E" stroke="#5f3c1e" stroke-width=".5"/>
  <polygon points="24,37 28,40.5 24,44 20,40.5" fill="#CE9A4E" stroke="#5f3c1e" stroke-width=".5"/>
  <polygon points="37,24 41,27.5 37,31 33,27.5" fill="#C6402F" stroke="#5f3c1e" stroke-width=".5"/>
 </g>
 <!-- wordmark -->
 <text x="68" y="34" font-family="'Noto Serif TC',serif" font-weight="900" font-size="26" fill="#EDE5D0" letter-spacing="2">算珠堂</text>
 <text x="68" y="48" font-family="'Kode Mono',monospace" font-size="8.5" fill="#CE9A4E" letter-spacing="4">SUANPAN · ABACUS</text>
</svg>
