<svg xmlns="http://www.w3.org/2000/svg" viewBox="0 0 240 72" role="img" aria-label="碼房 譯電傳習所">
  <rect width="240" height="72" fill="none"/>
  <!-- punched tape strip -->
  <g>
    <rect x="6" y="10" width="150" height="30" fill="#201907" stroke="#191307" stroke-width="1.5"/>
    <!-- sprocket feed line -->
    <g fill="#8A6C24">
      <circle cx="18" cy="27" r="1.6"/><circle cx="33" cy="27" r="1.6"/><circle cx="48" cy="27" r="1.6"/><circle cx="63" cy="27" r="1.6"/><circle cx="78" cy="27" r="1.6"/><circle cx="93" cy="27" r="1.6"/><circle cx="108" cy="27" r="1.6"/><circle cx="123" cy="27" r="1.6"/><circle cx="138" cy="27" r="1.6"/>
    </g>
    <!-- data holes (M A F A N G-ish pattern, decorative-authentic) -->
    <g fill="#E7D9AD">
      <circle cx="18" cy="16" r="2.4"/><circle cx="18" cy="21.5" r="2.4"/><circle cx="18" cy="33" r="2.4"/>
      <circle cx="33" cy="16" r="2.4"/><circle cx="33" cy="21.5" r="2.4"/>
      <circle cx="48" cy="16" r="2.4"/><circle cx="48" cy="21.5" r="2.4"/><circle cx="48" cy="38" r="2.4"/>
      <circle cx="63" cy="21.5" r="2.4"/><circle cx="63" cy="33" r="2.4"/>
      <circle cx="78" cy="16" r="2.4"/><circle cx="78" cy="38" r="2.4"/>
      <circle cx="93" cy="21.5" r="2.4"/><circle cx="93" cy="33" r="2.4"/><circle cx="93" cy="38" r="2.4"/>
      <circle cx="108" cy="16" r="2.4"/><circle cx="108" cy="33" r="2.4"/>
      <circle cx="123" cy="16" r="2.4"/><circle cx="123" cy="21.5" r="2.4"/><circle cx="123" cy="38" r="2.4"/>
      <circle cx="138" cy="33" r="2.4"/><circle cx="138" cy="38" r="2.4"/>
    </g>
  </g>
  <text x="166" y="34" font-family="'Noto Serif TC',serif" font-weight="900" font-size="30" fill="#191307">碼房</text>
  <text x="7" y="55" font-family="'Space Mono',monospace" font-size="9.5" letter-spacing="2.4" fill="#191307">MAFANG · 譯電傳習所</text>
</svg>
