<svg xmlns="http://www.w3.org/2000/svg" viewBox="0 0 520 160" role="img" aria-label="夜鳴愛樂管弦樂團 Nocturne Philharmonic">
  <rect width="520" height="160" fill="#121A2E"/>
  <!-- five-line staff -->
  <g stroke="#E9E3D2" stroke-width="1" opacity="0.55">
    <line x1="24" y1="56" x2="496" y2="56"/>
    <line x1="24" y1="70" x2="496" y2="70"/>
    <line x1="24" y1="84" x2="496" y2="84"/>
    <line x1="24" y1="98" x2="496" y2="98"/>
    <line x1="24" y1="112" x2="496" y2="112"/>
  </g>
  <!-- treble clef as solid ink form -->
  <g fill="#E9E3D2">
    <path d="M56 128c-9 0-16-6-16-15 0-8 6-13 13-13 5 0 9 3 9 8 0 4-3 7-7 7-2 0-4-1-5-3 1 4 4 6 8 6 6 0 10-5 10-12 0-6-3-11-7-16l-2-2 3-20c3-14-2-24-11-24-7 0-12 6-12 14 0 6 3 12 8 18l2 3-3 19c-1 6 0 11 3 15 3 5 8 8 14 8 2 0 4 0 5-1l-1 6c-2 8-7 12-13 12-4 0-7-2-7-5 0-2 1-3 3-3 2 0 3 1 3 3 0 1 0 1-1 2 1 0 2-1 2-3 0-3-3-5-6-5-5 0-8 4-8 9 0 6 5 10 12 10 9 0 15-7 17-17l2-9zm-6-70c-4-5-6-10-6-15 0-5 3-9 7-9 5 0 8 6 6 15l-2 12z"/>
  </g>
  <!-- solid note heads on the staff -->
  <g fill="#D6452F">
    <ellipse cx="360" cy="98" rx="7" ry="5" transform="rotate(-20 360 98)"/>
    <ellipse cx="410" cy="84" rx="7" ry="5" transform="rotate(-20 410 84)"/>
    <ellipse cx="460" cy="70" rx="7" ry="5" transform="rotate(-20 460 70)"/>
  </g>
  <g stroke="#E9E3D2" stroke-width="2">
    <line x1="366" y1="97" x2="366" y2="60"/>
    <line x1="416" y1="83" x2="416" y2="46"/>
    <line x1="466" y1="69" x2="466" y2="32"/>
  </g>
  <!-- wordmark -->
  <text x="96" y="40" font-family="'Cormorant Garamond', Georgia, serif" font-size="30" letter-spacing="2" fill="#E9E3D2">NOCTURNE</text>
  <text x="96" y="145" font-family="'Cormorant Garamond', Georgia, serif" font-size="16" letter-spacing="6" fill="#6E8BB0">PHILHARMONIC · VERHOLM</text>
</svg>
