<svg xmlns="http://www.w3.org/2000/svg" viewBox="0 0 300 84" role="img" aria-label="四時直送 SÌSHÍ">
  <!-- seasonal ring mark -->
  <g transform="translate(42,42)">
    <circle r="30" fill="none" stroke="#2E3B27" stroke-width="2.4"/>
    <path d="M0 -30 A30 30 0 0 1 30 0 L0 0 Z" fill="#6E8B4E"/>
    <path d="M30 0 A30 30 0 0 1 0 30 L0 0 Z" fill="#C9A24B"/>
    <path d="M0 30 A30 30 0 0 1 -30 0 L0 0 Z" fill="#B4633A"/>
    <path d="M-30 0 A30 30 0 0 1 0 -30 L0 0 Z" fill="#EFE7D6"/>
    <!-- sprout -->
    <path d="M0 14 C0 2 0 -4 0 -12" fill="none" stroke="#2E3B27" stroke-width="2.6" stroke-linecap="round"/>
    <path d="M0 -4 C-9 -6 -13 -13 -12 -20 C-4 -20 1 -14 0 -4 Z" fill="#2E3B27"/>
    <path d="M0 0 C8 -2 13 -8 13 -15 C6 -15 0 -9 0 0 Z" fill="#2E3B27"/>
  </g>
  <text x="82" y="40" font-family="'Noto Serif TC',serif" font-weight="700" font-size="27" fill="#2E3B27" letter-spacing="4">四時直送</text>
  <text x="83" y="62" font-family="'Newsreader',serif" font-style="italic" font-size="15" fill="#B4633A" letter-spacing="5">SÌSHÍ · 產地直送</text>
</svg>
