<svg xmlns="http://www.w3.org/2000/svg" viewBox="0 0 260 72" role="img" aria-label="SCUFF зЈЁжђЌж»‘жќї">
  <!-- ransom-note cut letters -->
  <g font-family="Anton, Impact, sans-serif" font-size="40">
    <g transform="rotate(-6 24 40)"><rect x="4" y="14" width="34" height="42" fill="#151113"/><text x="21" y="49" text-anchor="middle" fill="#F4531B">S</text></g>
    <g transform="rotate(4 60 38)"><rect x="42" y="10" width="34" height="42" fill="#F4531B"/><text x="59" y="45" text-anchor="middle" fill="#151113">C</text></g>
    <g transform="rotate(-3 96 42)"><rect x="80" y="16" width="34" height="42" fill="#E7E1D0" stroke="#151113" stroke-width="2"/><text x="97" y="51" text-anchor="middle" fill="#7A22CC">U</text></g>
    <g transform="rotate(7 132 38)"><rect x="118" y="11" width="30" height="42" fill="#7A22CC"/><text x="133" y="46" text-anchor="middle" fill="#E7E1D0">F</text></g>
    <g transform="rotate(-5 166 41)"><rect x="152" y="15" width="30" height="42" fill="#151113"/><text x="167" y="50" text-anchor="middle" fill="#F4531B">F</text></g>
  </g>
  <!-- torn-paper skateboard cutout -->
  <g transform="translate(190,20) rotate(-14)">
    <path d="M2 14 Q0 2 12 3 L58 3 Q70 2 68 14 Q70 26 58 25 L12 25 Q0 26 2 14 Z" fill="#151113"/>
    <circle cx="16" cy="30" r="4.5" fill="#F4531B" stroke="#151113" stroke-width="1.5"/>
    <circle cx="54" cy="30" r="4.5" fill="#7A22CC" stroke="#151113" stroke-width="1.5"/>
  </g>
  <!-- overprint mis-registration ghost -->
  <text x="18" y="70" font-family="'Space Mono', monospace" font-size="9" fill="#7A22CC" opacity="0.85" letter-spacing="2">зЈЁжђЌж»‘жќїгѓ»TAIPEI</text>
</svg>
