<svg xmlns="http://www.w3.org/2000/svg" viewBox="0 0 320 96" width="320" height="96" role="img" aria-label="梅溪號誌樓保存會">
  <rect width="320" height="96" fill="#0B7A3E"/>
  <!-- 號誌柱與臂木（反位 45 度＝進行） -->
  <g>
    <rect x="20" y="12" width="6" height="60" fill="#F4F1E4"/>
    <g transform="rotate(45 26 22)">
      <rect x="26" y="17" width="38" height="11" fill="#E33A1B" stroke="#F4F1E4" stroke-width="2"/>
      <rect x="52" y="20" width="5" height="5" fill="#F4F1E4"/>
    </g>
    <circle cx="23" cy="80" r="8" fill="none" stroke="#F5B301" stroke-width="3"/>
    <circle cx="23" cy="80" r="2.6" fill="#F5B301"/>
  </g>
  <!-- 刻度尺 -->
  <g stroke="#F4F1E4" stroke-width="1.5" opacity=".55">
    <line x1="86" y1="76" x2="304" y2="76"/>
    <line x1="90" y1="76" x2="90" y2="70"/><line x1="112" y1="76" x2="112" y2="66"/>
    <line x1="134" y1="76" x2="134" y2="70"/><line x1="156" y1="76" x2="156" y2="66"/>
    <line x1="178" y1="76" x2="178" y2="70"/><line x1="200" y1="76" x2="200" y2="66"/>
    <line x1="222" y1="76" x2="222" y2="70"/><line x1="244" y1="76" x2="244" y2="66"/>
    <line x1="266" y1="76" x2="266" y2="70"/><line x1="288" y1="76" x2="288" y2="66"/>
  </g>
  <text x="86" y="42" fill="#F4F1E4" font-family="'Noto Sans TC',sans-serif" font-weight="900" font-size="28" letter-spacing="4">梅溪號誌樓</text>
  <text x="88" y="62" fill="#F5B301" font-family="Oswald,sans-serif" font-size="11" letter-spacing="5.5">MEIXI SIGNAL BOX · 8K+430</text>
</svg>
