<?xml version="1.0" encoding="UTF-8"?>
<svg xmlns="http://www.w3.org/2000/svg" viewBox="0 0 168 60" width="336" height="120" role="img" aria-label="濁水蔭甕醬園"><g transform="translate(2,-2) scale(0.46)"><path d="M33,20 C23,33 15,46 15,64 C15,95 27,111 50,111 C73,111 85,95 85,64 C85,46 77,33 67,20 Z" fill="#54391D" stroke="#160E06" stroke-width="3"/><path d="M35,64 C31,80 40,101 50,101 C60,101 69,80 65,64 Z" fill="#2B1B0C"/><rect x="27" y="13" width="46" height="8" fill="#3E2814" stroke="#160E06" stroke-width="2.4"/></g><rect x="56" y="40" width="7.2" height="11" fill="#F0E4CD"/><rect x="65" y="37.4" width="7.2" height="13.6" fill="#E4D4B7"/><rect x="74" y="34.8" width="7.2" height="16.2" fill="#D6C19D"/><rect x="83" y="32.2" width="7.2" height="18.8" fill="#C4AB82"/><rect x="92" y="29.6" width="7.2" height="21.4" fill="#B09368"/><rect x="101" y="27" width="7.2" height="24" fill="#9A7A4F"/><rect x="110" y="24.4" width="7.2" height="26.6" fill="#82613A"/><rect x="119" y="21.8" width="7.2" height="29.2" fill="#6A4B2A"/><rect x="128" y="19.2" width="7.2" height="31.8" fill="#54391D"/><rect x="137" y="16.599999999999998" width="7.2" height="34.400000000000006" fill="#3E2814"/><rect x="146" y="14" width="7.2" height="37" fill="#2B1B0C"/><rect x="155" y="11.399999999999999" width="7.2" height="39.6" fill="#160E06"/><text x="56" y="16" font-family="Noto Serif TC,serif" font-weight="900" font-size="17" letter-spacing="3" fill="#E4D4B7">蔭甕</text></svg>