<svg xmlns="http://www.w3.org/2000/svg" viewBox="0 0 540 190" width="540" height="190" role="img" aria-label="Eight Count — Hi/Lo Aerobics Floor">
<title>Eight Count — Hi/Lo Aerobics Floor, Culver City</title>
<defs><pattern id="d" width="6" height="6" patternUnits="userSpaceOnUse"><path d="M5 0h1v1H5zM4 1h1v1H4zM3 2h1v1H3zM2 3h1v1H2zM1 4h1v1H1zM0 5h1v1H0z" fill="#16161D"/></pattern></defs>
<rect width="540" height="190" fill="#F5B3C8"/>
<rect x="0" y="146" width="540" height="44" fill="#A8C6EE"/><path d="M0 146h540" stroke="#16161D" stroke-width="3"/>
<g stroke="#16161D" stroke-width="2" shape-rendering="crispEdges"><path d="M0 160h540M0 176h540"/><path d="M270 146L200 190M270 146L130 190M270 146L60 190M270 146L340 190M270 146L410 190M270 146L480 190M270 146L270 190"/></g>
<rect x="22" y="18" width="150" height="120" fill="#9EE0CC" stroke="#16161D" stroke-width="3" transform="rotate(-6 97 78)"/>
<g transform="translate(46 24)" shape-rendering="crispEdges"><path transform="translate(8 10) scale(17)" d="M1 0h3v1h-3zM0 1h1v1h-1zM4 1h1v1h-1zM0 2h1v1h-1zM4 2h1v1h-1zM1 3h3v1h-3zM0 4h1v1h-1zM4 4h1v1h-1zM0 5h1v1h-1zM4 5h1v1h-1zM1 6h3v1h-3z" fill="#16161D"/><path transform="scale(17)" d="M1 0h3v1h-3zM0 1h1v1h-1zM4 1h1v1h-1zM0 2h1v1h-1zM4 2h1v1h-1zM1 3h3v1h-3zM0 4h1v1h-1zM4 4h1v1h-1zM0 5h1v1h-1zM4 5h1v1h-1zM1 6h3v1h-3z" fill="#E5342A"/></g>
<g transform="translate(160 20)"><path d="M40 0L0 118h80z" fill="#FFD23F" stroke="#16161D" stroke-width="3"/><path d="M40 0l40 118H40z" fill="url(#d)"/></g>
<path transform="translate(238 56) scale(4.5)" shape-rendering="crispEdges" d="M0 0h5v1h-5zM0 1h1v1h-1zM0 2h1v1h-1zM0 3h4v1h-4zM0 4h1v1h-1zM0 5h1v1h-1zM0 6h5v1h-5zM6 0h5v1h-5zM8 1h1v1h-1zM8 2h1v1h-1zM8 3h1v1h-1zM8 4h1v1h-1zM8 5h1v1h-1zM6 6h5v1h-5zM13 0h4v1h-4zM12 1h1v1h-1zM12 2h1v1h-1zM12 3h1v1h-1zM14 3h3v1h-3zM12 4h1v1h-1zM16 4h1v1h-1zM12 5h1v1h-1zM16 5h1v1h-1zM13 6h3v1h-3zM18 0h1v1h-1zM22 0h1v1h-1zM18 1h1v1h-1zM22 1h1v1h-1zM18 2h1v1h-1zM22 2h1v1h-1zM18 3h5v1h-5zM18 4h1v1h-1zM22 4h1v1h-1zM18 5h1v1h-1zM22 5h1v1h-1zM18 6h1v1h-1zM22 6h1v1h-1zM24 0h5v1h-5zM26 1h1v1h-1zM26 2h1v1h-1zM26 3h1v1h-1zM26 4h1v1h-1zM26 5h1v1h-1zM26 6h1v1h-1zM37 0h4v1h-4zM36 1h1v1h-1zM36 2h1v1h-1zM36 3h1v1h-1zM36 4h1v1h-1zM36 5h1v1h-1zM37 6h4v1h-4zM43 0h3v1h-3zM42 1h1v1h-1zM46 1h1v1h-1zM42 2h1v1h-1zM46 2h1v1h-1zM42 3h1v1h-1zM46 3h1v1h-1zM42 4h1v1h-1zM46 4h1v1h-1zM42 5h1v1h-1zM46 5h1v1h-1zM43 6h3v1h-3zM48 0h1v1h-1zM52 0h1v1h-1zM48 1h1v1h-1zM52 1h1v1h-1zM48 2h1v1h-1zM52 2h1v1h-1zM48 3h1v1h-1zM52 3h1v1h-1zM48 4h1v1h-1zM52 4h1v1h-1zM48 5h1v1h-1zM52 5h1v1h-1zM49 6h3v1h-3zM54 0h1v1h-1zM58 0h1v1h-1zM54 1h2v1h-2zM58 1h1v1h-1zM54 2h1v1h-1zM56 2h1v1h-1zM58 2h1v1h-1zM54 3h1v1h-1zM57 3h2v1h-2zM54 4h1v1h-1zM58 4h1v1h-1zM54 5h1v1h-1zM58 5h1v1h-1zM54 6h1v1h-1zM58 6h1v1h-1zM60 0h5v1h-5zM62 1h1v1h-1zM62 2h1v1h-1zM62 3h1v1h-1zM62 4h1v1h-1zM62 5h1v1h-1zM62 6h1v1h-1z" fill="#16161D"/>
<text x="240" y="112" font-family="Archivo,Helvetica,Arial,sans-serif" font-size="13" font-weight="300" font-style="italic" letter-spacing="5.2" fill="#16161D">HI/LO AEROBICS FLOOR · CULVER CITY</text>
<circle cx="512" cy="30" r="12" fill="#2447D6" stroke="#16161D" stroke-width="3"/>
</svg>