<svg xmlns="http://www.w3.org/2000/svg" viewBox="0 0 240 64" role="img" aria-label="TANDVIK">
  <!-- isometric tooth mark -->
  <g transform="translate(8 8)">
    <!-- base shadow -->
    <path d="M24 40 L38 32 L38 40 L24 48 L10 40 L10 32 Z" fill="#8FA98C" opacity="0.55"/>
    <!-- tooth body isometric -->
    <path d="M24 6 C16 6 12 11 12 17 C12 23 14 27 15 33 L18 40 C19 42 21 40 22 36 C23 33 25 33 26 36 C27 40 29 42 30 40 L33 33 C34 27 36 23 36 17 C36 11 32 6 24 6 Z" fill="#4A6C8C"/>
    <path d="M24 6 C20 6 16 8 14 12 L24 15 L34 12 C32 8 28 6 24 6 Z" fill="#6C8AA6"/>
    <path d="M24 15 L24 42" stroke="#F4F1EC" stroke-width="1.4" opacity="0.5"/>
  </g>
  <text x="60" y="41" font-family="'Space Grotesk',sans-serif" font-size="26" font-weight="700" letter-spacing="1.5" fill="#23282B">TANDVIK</text>
</svg>
