<svg xmlns="http://www.w3.org/2000/svg" viewBox="0 0 48 48" role="img" aria-label="MILLIBAR">
  <rect width="48" height="48" rx="5" fill="#16242E"/>
  <g fill="none" stroke="#7E99A8" stroke-width="1.4">
    <path d="M24 6c9 0 15 7 15 18s-6 18-15 18-15-7-15-18S15 6 24 6Z"/>
    <path d="M24 11c6.4 0 10.6 5 10.6 13S30.4 37 24 37 13.4 32 13.4 24 17.6 11 24 11Z"/>
  </g>
  <g fill="none" stroke="#AEC1CC" stroke-width="1.4">
    <path d="M24 16c3.6 0 6 3.2 6 8s-2.4 8-6 8-6-3.2-6-8 2.4-8 6-8Z"/>
  </g>
  <circle cx="24" cy="24" r="3.1" fill="#C4362B"/>
  <text x="24" y="27.6" text-anchor="middle" font-family="'Space Mono',monospace" font-size="6.4" font-weight="700" fill="#E7ECEE">L</text>
</svg>
