<svg xmlns="http://www.w3.org/2000/svg" viewBox="0 0 360 120" width="360" height="120" role="img" aria-label="THE DAZZLE SECTION — 第四號乾塢・分版塗裝所">
  <title>THE DAZZLE SECTION — No.4 Graving Dock, Birkenhead</title>
  <rect width="360" height="120" fill="#E6E3DB"/>
  <!-- 渦：偏心，九個角寬全不相同的楔。中心那個 5px 方塊是渦心本身——它不動 -->
  <g>
    <polygon points="40,70 118,8 118,26" fill="#0E0F12"/>
    <polygon points="40,70 118,26 118,42" fill="#BE3A52"/>
    <polygon points="40,70 118,42 118,68" fill="#0E0F12"/>
    <polygon points="40,70 118,68 98,118" fill="#7FA79B"/>
    <polygon points="40,70 98,118 38,118" fill="#0E0F12"/>
    <polygon points="40,70 38,118 0,90" fill="#8C9298"/>
    <polygon points="40,70 0,90 0,16" fill="#0E0F12"/>
    <polygon points="40,70 0,16 62,2" fill="#BE3A52"/>
    <polygon points="40,70 62,2 118,8" fill="#E6E3DB"/>
    <rect x="37" y="67" width="6" height="6" fill="#E6E3DB"/>
  </g>
  <!-- 假艏波：整個標記裡唯一在說謊的一筆 -->
  <polygon points="132,96 150,102 138,110 152,116 132,118" fill="#0E0F12"/>
  <text x="136" y="42" font-family="'Archivo Black',Impact,sans-serif" font-size="30" letter-spacing="1.6" fill="#0E0F12">THE DAZZLE</text>
  <text x="136" y="72" font-family="'Archivo Black',Impact,sans-serif" font-size="30" letter-spacing="1.6" fill="#BE3A52">SECTION</text>
  <text x="160" y="112" font-family="'Archivo Black',Impact,sans-serif" font-size="11" letter-spacing="2.4" fill="#0E0F12">BIRKENHEAD · NO.4 GRAVING DOCK</text>
  <rect x="136" y="82" width="200" height="4" fill="#0E0F12"/>
</svg>
