<svg xmlns="http://www.w3.org/2000/svg" viewBox="0 0 96 96" width="96" height="96" role="img" aria-label="八片織研所標誌：二上二下斜紋交織"><rect width="96" height="96" fill="#241430"/><rect x="0" y="-0.4" width="12" height="12.8" fill="#6C2E88"/><rect x="2.88" y="-0.4" width="2.4" height="12.8" fill="#FFFFFF" opacity=".45"/><rect x="12" y="-0.4" width="12" height="12.8" fill="#6C2E88"/><rect x="14.88" y="-0.4" width="2.4" height="12.8" fill="#FFFFFF" opacity=".45"/><rect x="23.6" y="0" width="12.8" height="12" fill="#F0C33C"/><rect x="23.6" y="2.88" width="12.8" height="2.4" fill="#FFFFFF" opacity=".38"/><rect x="35.6" y="0" width="12.8" height="12" fill="#F0C33C"/><rect x="35.6" y="2.88" width="12.8" height="2.4" fill="#FFFFFF" opacity=".38"/><rect x="48" y="-0.4" width="12" height="12.8" fill="#6C2E88"/><rect x="50.88" y="-0.4" width="2.4" height="12.8" fill="#FFFFFF" opacity=".45"/><rect x="60" y="-0.4" width="12" height="12.8" fill="#6C2E88"/><rect x="62.88" y="-0.4" width="2.4" height="12.8" fill="#FFFFFF" opacity=".45"/><rect x="71.6" y="0" width="12.8" height="12" fill="#F0C33C"/><rect x="71.6" y="2.88" width="12.8" height="2.4" fill="#FFFFFF" opacity=".38"/><rect x="83.6" y="0" width="12.8" height="12" fill="#F0C33C"/><rect x="83.6" y="2.88" width="12.8" height="2.4" fill="#FFFFFF" opacity=".38"/><rect x="-0.4" y="12" width="12.8" height="12" fill="#F0C33C"/><rect x="-0.4" y="14.88" width="12.8" height="2.4" fill="#FFFFFF" opacity=".38"/><rect x="12" y="11.6" width="12" height="12.8" fill="#6C2E88"/><rect x="14.88" y="11.6" width="2.4" height="12.8" fill="#FFFFFF" opacity=".45"/><rect x="24" y="11.6" width="12" height="12.8" fill="#6C2E88"/><rect x="26.88" y="11.6" width="2.4" height="12.8" fill="#FFFFFF" opacity=".45"/><rect x="35.6" y="12" width="12.8" height="12" fill="#F0C33C"/><rect x="35.6" y="14.88" width="12.8" height="2.4" fill="#FFFFFF" opacity=".38"/><rect x="47.6" y="12" width="12.8" height="12" fill="#F0C33C"/><rect x="47.6" y="14.88" width="12.8" height="2.4" fill="#FFFFFF" opacity=".38"/><rect x="60" y="11.6" width="12" height="12.8" fill="#6C2E88"/><rect x="62.88" y="11.6" width="2.4" height="12.8" fill="#FFFFFF" opacity=".45"/><rect x="72" y="11.6" width="12" height="12.8" fill="#6C2E88"/><rect x="74.88" y="11.6" width="2.4" height="12.8" fill="#FFFFFF" opacity=".45"/><rect x="83.6" y="12" width="12.8" height="12" fill="#F0C33C"/><rect x="83.6" y="14.88" width="12.8" height="2.4" fill="#FFFFFF" opacity=".38"/><rect x="-0.4" y="24" width="12.8" height="12" fill="#F0C33C"/><rect x="-0.4" y="26.88" width="12.8" height="2.4" fill="#FFFFFF" opacity=".38"/><rect x="11.6" y="24" width="12.8" height="12" fill="#F0C33C"/><rect x="11.6" y="26.88" width="12.8" height="2.4" fill="#FFFFFF" opacity=".38"/><rect x="24" y="23.6" width="12" height="12.8" fill="#6C2E88"/><rect x="26.88" y="23.6" width="2.4" height="12.8" fill="#FFFFFF" opacity=".45"/><rect x="36" y="23.6" width="12" height="12.8" fill="#6C2E88"/><rect x="38.88" y="23.6" width="2.4" height="12.8" fill="#FFFFFF" opacity=".45"/><rect x="47.6" y="24" width="12.8" height="12" fill="#F0C33C"/><rect x="47.6" y="26.88" width="12.8" height="2.4" fill="#FFFFFF" opacity=".38"/><rect x="59.6" y="24" width="12.8" height="12" fill="#F0C33C"/><rect x="59.6" y="26.88" width="12.8" height="2.4" fill="#FFFFFF" opacity=".38"/><rect x="72" y="23.6" width="12" height="12.8" fill="#6C2E88"/><rect x="74.88" y="23.6" width="2.4" height="12.8" fill="#FFFFFF" opacity=".45"/><rect x="84" y="23.6" width="12" height="12.8" fill="#6C2E88"/><rect x="86.88" y="23.6" width="2.4" height="12.8" fill="#FFFFFF" opacity=".45"/><rect x="0" y="35.6" width="12" height="12.8" fill="#6C2E88"/><rect x="2.88" y="35.6" width="2.4" height="12.8" fill="#FFFFFF" opacity=".45"/><rect x="11.6" y="36" width="12.8" height="12" fill="#F0C33C"/><rect x="11.6" y="38.88" width="12.8" height="2.4" fill="#FFFFFF" opacity=".38"/><rect x="23.6" y="36" width="12.8" height="12" fill="#F0C33C"/><rect x="23.6" y="38.88" width="12.8" height="2.4" fill="#FFFFFF" opacity=".38"/><rect x="36" y="35.6" width="12" height="12.8" fill="#6C2E88"/><rect x="38.88" y="35.6" width="2.4" height="12.8" fill="#FFFFFF" opacity=".45"/><rect x="48" y="35.6" width="12" height="12.8" fill="#6C2E88"/><rect x="50.88" y="35.6" width="2.4" height="12.8" fill="#FFFFFF" opacity=".45"/><rect x="59.6" y="36" width="12.8" height="12" fill="#F0C33C"/><rect x="59.6" y="38.88" width="12.8" height="2.4" fill="#FFFFFF" opacity=".38"/><rect x="71.6" y="36" width="12.8" height="12" fill="#F0C33C"/><rect x="71.6" y="38.88" width="12.8" height="2.4" fill="#FFFFFF" opacity=".38"/><rect x="84" y="35.6" width="12" height="12.8" fill="#6C2E88"/><rect x="86.88" y="35.6" width="2.4" height="12.8" fill="#FFFFFF" opacity=".45"/><rect x="0" y="47.6" width="12" height="12.8" fill="#6C2E88"/><rect x="2.88" y="47.6" width="2.4" height="12.8" fill="#FFFFFF" opacity=".45"/><rect x="12" y="47.6" width="12" height="12.8" fill="#6C2E88"/><rect x="14.88" y="47.6" width="2.4" height="12.8" fill="#FFFFFF" opacity=".45"/><rect x="23.6" y="48" width="12.8" height="12" fill="#F0C33C"/><rect x="23.6" y="50.88" width="12.8" height="2.4" fill="#FFFFFF" opacity=".38"/><rect x="35.6" y="48" width="12.8" height="12" fill="#F0C33C"/><rect x="35.6" y="50.88" width="12.8" height="2.4" fill="#FFFFFF" opacity=".38"/><rect x="48" y="47.6" width="12" height="12.8" fill="#6C2E88"/><rect x="50.88" y="47.6" width="2.4" height="12.8" fill="#FFFFFF" opacity=".45"/><rect x="60" y="47.6" width="12" height="12.8" fill="#6C2E88"/><rect x="62.88" y="47.6" width="2.4" height="12.8" fill="#FFFFFF" opacity=".45"/><rect x="71.6" y="48" width="12.8" height="12" fill="#F0C33C"/><rect x="71.6" y="50.88" width="12.8" height="2.4" fill="#FFFFFF" opacity=".38"/><rect x="83.6" y="48" width="12.8" height="12" fill="#F0C33C"/><rect x="83.6" y="50.88" width="12.8" height="2.4" fill="#FFFFFF" opacity=".38"/><rect x="-0.4" y="60" width="12.8" height="12" fill="#F0C33C"/><rect x="-0.4" y="62.88" width="12.8" height="2.4" fill="#FFFFFF" opacity=".38"/><rect x="12" y="59.6" width="12" height="12.8" fill="#6C2E88"/><rect x="14.88" y="59.6" width="2.4" height="12.8" fill="#FFFFFF" opacity=".45"/><rect x="24" y="59.6" width="12" height="12.8" fill="#6C2E88"/><rect x="26.88" y="59.6" width="2.4" height="12.8" fill="#FFFFFF" opacity=".45"/><rect x="35.6" y="60" width="12.8" height="12" fill="#F0C33C"/><rect x="35.6" y="62.88" width="12.8" height="2.4" fill="#FFFFFF" opacity=".38"/><rect x="47.6" y="60" width="12.8" height="12" fill="#F0C33C"/><rect x="47.6" y="62.88" width="12.8" height="2.4" fill="#FFFFFF" opacity=".38"/><rect x="60" y="59.6" width="12" height="12.8" fill="#6C2E88"/><rect x="62.88" y="59.6" width="2.4" height="12.8" fill="#FFFFFF" opacity=".45"/><rect x="72" y="59.6" width="12" height="12.8" fill="#6C2E88"/><rect x="74.88" y="59.6" width="2.4" height="12.8" fill="#FFFFFF" opacity=".45"/><rect x="83.6" y="60" width="12.8" height="12" fill="#F0C33C"/><rect x="83.6" y="62.88" width="12.8" height="2.4" fill="#FFFFFF" opacity=".38"/><rect x="-0.4" y="72" width="12.8" height="12" fill="#F0C33C"/><rect x="-0.4" y="74.88" width="12.8" height="2.4" fill="#FFFFFF" opacity=".38"/><rect x="11.6" y="72" width="12.8" height="12" fill="#F0C33C"/><rect x="11.6" y="74.88" width="12.8" height="2.4" fill="#FFFFFF" opacity=".38"/><rect x="24" y="71.6" width="12" height="12.8" fill="#6C2E88"/><rect x="26.88" y="71.6" width="2.4" height="12.8" fill="#FFFFFF" opacity=".45"/><rect x="36" y="71.6" width="12" height="12.8" fill="#6C2E88"/><rect x="38.88" y="71.6" width="2.4" height="12.8" fill="#FFFFFF" opacity=".45"/><rect x="47.6" y="72" width="12.8" height="12" fill="#F0C33C"/><rect x="47.6" y="74.88" width="12.8" height="2.4" fill="#FFFFFF" opacity=".38"/><rect x="59.6" y="72" width="12.8" height="12" fill="#F0C33C"/><rect x="59.6" y="74.88" width="12.8" height="2.4" fill="#FFFFFF" opacity=".38"/><rect x="72" y="71.6" width="12" height="12.8" fill="#6C2E88"/><rect x="74.88" y="71.6" width="2.4" height="12.8" fill="#FFFFFF" opacity=".45"/><rect x="84" y="71.6" width="12" height="12.8" fill="#6C2E88"/><rect x="86.88" y="71.6" width="2.4" height="12.8" fill="#FFFFFF" opacity=".45"/><rect x="0" y="83.6" width="12" height="12.8" fill="#6C2E88"/><rect x="2.88" y="83.6" width="2.4" height="12.8" fill="#FFFFFF" opacity=".45"/><rect x="11.6" y="84" width="12.8" height="12" fill="#F0C33C"/><rect x="11.6" y="86.88" width="12.8" height="2.4" fill="#FFFFFF" opacity=".38"/><rect x="23.6" y="84" width="12.8" height="12" fill="#F0C33C"/><rect x="23.6" y="86.88" width="12.8" height="2.4" fill="#FFFFFF" opacity=".38"/><rect x="36" y="83.6" width="12" height="12.8" fill="#6C2E88"/><rect x="38.88" y="83.6" width="2.4" height="12.8" fill="#FFFFFF" opacity=".45"/><rect x="48" y="83.6" width="12" height="12.8" fill="#6C2E88"/><rect x="50.88" y="83.6" width="2.4" height="12.8" fill="#FFFFFF" opacity=".45"/><rect x="59.6" y="84" width="12.8" height="12" fill="#F0C33C"/><rect x="59.6" y="86.88" width="12.8" height="2.4" fill="#FFFFFF" opacity=".38"/><rect x="71.6" y="84" width="12.8" height="12" fill="#F0C33C"/><rect x="71.6" y="86.88" width="12.8" height="2.4" fill="#FFFFFF" opacity=".38"/><rect x="84" y="83.6" width="12" height="12.8" fill="#6C2E88"/><rect x="86.88" y="83.6" width="2.4" height="12.8" fill="#FFFFFF" opacity=".45"/><rect x="1" y="1" width="94" height="94" fill="none" stroke="#F1EADA" stroke-width="2"/></svg>